<svg width="221" height="55" viewBox="0 0 221 55" fill="none" xmlns="http://www.w3.org/2000/svg">
<g clip-path="url(#clip0_3_3349)">
<path d="M6.08062 40.7274C4.68714 40.1363 3.67371 39.3762 3.04031 38.4472C2.40691 37.5182 2.09021 36.3992 2.09021 35.0902C2.09021 33.9079 2.40691 32.8733 3.04031 31.9866C3.71593 31.0998 4.60269 30.4031 5.70058 29.8963V29.7063C4.64492 28.8618 3.86373 27.8061 3.35701 26.5393C2.89252 25.2303 2.66027 23.7313 2.66027 22.0422C2.66027 18.6641 3.75816 16.0883 5.95394 14.3148C8.14971 12.5413 11.9501 11.6545 17.3551 11.6545C21.7889 11.6545 25.167 12.2879 27.4894 13.5547H27.8061C28.4818 12.4568 29.3474 11.5489 30.4031 10.8311C31.4587 10.1132 32.7466 9.75432 34.2668 9.75432C34.7313 9.75432 35.1535 9.77543 35.5336 9.81766C35.9136 9.81766 36.2725 9.83877 36.6104 9.881V17.6718C35.8081 17.5029 34.858 17.4184 33.7601 17.4184C32.8733 17.4184 32.0288 17.5029 31.2265 17.6718C31.691 18.8963 31.9232 20.3532 31.9232 22.0422C31.9232 25.6737 30.8253 28.2917 28.6296 29.8963C26.4338 31.501 22.6756 32.3033 17.3551 32.3033C16.1305 32.3033 14.9904 32.261 13.9347 32.1766C12.8791 32.0921 11.9079 31.9654 11.0211 31.7965C10.8522 32.1343 10.7678 32.5355 10.7678 33C10.7678 33.6756 10.9789 34.2457 11.4012 34.7102C11.8656 35.1324 12.6468 35.3436 13.7447 35.3436H22.8656C26.7505 35.3436 29.643 35.9558 31.5432 37.1804C33.4856 38.405 34.4568 40.7697 34.4568 44.2745C34.4568 47.737 33.1056 50.3762 30.4031 52.1919C27.7006 54.0077 23.1401 54.9155 16.7217 54.9155C11.4434 54.9155 7.60077 54.1977 5.19386 52.762C2.78695 51.3685 1.5835 49.3205 1.5835 46.618C1.5835 45.1401 1.98465 43.9155 2.78695 42.9443C3.58925 41.9309 4.68714 41.2553 6.08062 40.9175V40.7274ZM17.3551 25.5259C19.3397 25.5259 20.7332 25.2937 21.5355 24.8292C22.3378 24.3225 22.739 23.4357 22.739 22.1689C22.739 20.9021 22.3378 19.9731 21.5355 19.382C20.7332 18.7908 19.3397 18.4952 17.3551 18.4952C15.3282 18.4952 13.9136 18.7908 13.1113 19.382C12.309 19.9731 11.9079 20.9021 11.9079 22.1689C11.9079 23.4357 12.309 24.3225 13.1113 24.8292C13.9136 25.2937 15.3282 25.5259 17.3551 25.5259ZM17.9251 47.4414C20.1631 47.4414 21.81 47.3359 22.8656 47.1247C23.9213 46.9136 24.618 46.5969 24.9559 46.1747C25.2937 45.7524 25.4626 45.2246 25.4626 44.5912C25.4626 43.8733 25.2514 43.3033 24.8292 42.881C24.4069 42.4165 23.7735 42.1843 22.929 42.1843H13.238C12.3935 42.1843 11.7601 42.4165 11.3378 42.881C10.9155 43.3033 10.7044 43.8733 10.7044 44.5912C10.7044 45.2246 10.8733 45.7524 11.2111 46.1747C11.5912 46.5969 12.2879 46.9136 13.3013 47.1247C14.357 47.3359 15.8983 47.4414 17.9251 47.4414ZM49.9345 42.8176H39.8001V11.9712H48.0343L48.8577 18.3052H49.0477C49.4278 15.9405 50.3357 14.2514 51.7714 13.238C53.2071 12.1823 55.3395 11.6545 58.1687 11.6545C59.3088 11.6545 60.3433 11.7178 61.2723 11.8445C62.2013 11.929 62.9825 12.0134 63.6159 12.0979V21.9789L63.4892 22.1056C62.8136 21.9367 62.0324 21.7889 61.1456 21.6622C60.3011 21.5355 59.3299 21.4722 58.232 21.4722C56.6696 21.4722 55.255 21.7255 53.9882 22.2322C52.7637 22.739 51.7925 23.7313 51.0746 25.2092C50.399 26.6449 50.0612 28.7985 50.0612 31.6699L49.9345 42.8176ZM65.851 27.6161C65.851 21.9578 67.0545 17.8829 69.4614 15.3916C71.8683 12.9002 75.9432 11.6545 81.686 11.6545C85.5286 11.6545 88.6111 12.2035 90.9336 13.3013C93.256 14.3992 94.924 16.1305 95.9374 18.4952C96.9931 20.8177 97.5209 23.858 97.5209 27.6161C97.5209 31.332 96.9931 34.3512 95.9374 36.6737C94.924 38.9962 93.256 40.7063 90.9336 41.8042C88.6111 42.8599 85.5286 43.3877 81.686 43.3877C75.9432 43.3877 71.8683 42.1631 69.4614 39.714C67.0545 37.2226 65.851 33.19 65.851 27.6161ZM81.686 34.7102C84.1351 34.7102 85.7819 34.1823 86.6265 33.1267C87.5132 32.0288 87.9566 30.1286 87.9566 27.4261C87.9566 24.8503 87.5132 23.0134 86.6265 21.9155C85.7819 20.7754 84.1351 20.2054 81.686 20.2054C79.3213 20.2054 77.6745 20.7754 76.7455 21.9155C75.8587 23.0134 75.4153 24.8503 75.4153 27.4261C75.4153 30.1286 75.8587 32.0288 76.7455 33.1267C77.6745 34.1823 79.3213 34.7102 81.686 34.7102ZM131.965 12.1612L121.894 42.8176H109.226L99.7254 12.0979V11.9712H111.126C112.013 15.2649 112.837 18.833 113.597 22.6756C114.399 26.5182 115.117 30.213 115.75 33.7601H116.004C116.637 30.213 117.334 26.5182 118.094 22.6756C118.896 18.833 119.741 15.2649 120.627 11.9712H131.965V12.1612ZM145.982 0.506715C146.109 2.02687 146.172 3.29367 146.172 4.3071C146.172 4.89827 146.151 5.51056 146.109 6.14395C146.109 6.73512 146.067 7.41075 145.982 8.17082C145.095 8.33973 144.23 8.46641 143.385 8.55086C142.541 8.63531 141.696 8.67754 140.852 8.67754C140.049 8.67754 139.226 8.63531 138.381 8.55086C137.579 8.46641 136.756 8.33973 135.911 8.17082C135.827 7.45297 135.763 6.79846 135.721 6.20729C135.679 5.5739 135.658 4.96161 135.658 4.37044C135.658 3.8215 135.679 3.23033 135.721 2.59693C135.763 1.96353 135.827 1.26679 135.911 0.506715C136.756 0.295582 137.6 0.168904 138.445 0.126677C139.332 0.0422234 140.197 -3.8147e-06 141.042 -3.8147e-06C141.844 -3.8147e-06 142.646 0.0422234 143.449 0.126677C144.293 0.168904 145.138 0.295582 145.982 0.506715ZM145.982 42.8176H135.848V11.9712H145.982V42.8176ZM163.129 42.8176H152.995V11.9712H162.623L163.129 17.6084H163.319C163.911 15.7083 164.966 14.2514 166.486 13.238C168.006 12.1823 170.118 11.6545 172.82 11.6545C176.494 11.6545 179.197 12.6891 180.928 14.7582C182.701 16.8273 183.588 20.4165 183.588 25.5259V42.8176H173.454L173.39 27.4894C173.39 25.1248 173.031 23.4357 172.314 22.4223C171.596 21.4088 170.244 20.9021 168.26 20.9021C166.402 20.9021 165.093 21.3666 164.333 22.2956C163.573 23.1823 163.172 24.7236 163.129 26.9194V42.8176ZM217.714 41.8042C216.532 42.2265 214.885 42.6065 212.774 42.9443C210.705 43.2399 208.235 43.3877 205.363 43.3877C201.732 43.3877 198.628 42.9232 196.052 41.9942C193.519 41.023 191.597 39.3973 190.288 37.1171C188.979 34.7946 188.325 31.5854 188.325 27.4894C188.325 21.9155 189.592 17.8829 192.125 15.3916C194.701 12.9002 198.67 11.6545 204.033 11.6545C207.876 11.6545 210.895 12.2035 213.091 13.3013C215.329 14.3992 216.912 15.9616 217.841 17.9885C218.812 19.9731 219.298 22.3378 219.298 25.0825C219.298 25.8848 219.256 26.7505 219.171 27.6795C219.129 28.6084 219.023 29.5163 218.855 30.4031L218.601 30.6564H197.762C198.058 32.5144 198.924 33.739 200.359 34.3301C201.837 34.9213 204.223 35.2169 207.517 35.2169C209.713 35.2169 211.528 35.1747 212.964 35.0902C214.442 34.9635 215.941 34.7946 217.461 34.5835L217.714 34.7735V41.8042ZM210.494 24.0058C210.494 22.9923 210.325 22.1267 209.987 21.4088C209.691 20.6487 209.079 20.0787 208.15 19.6987C207.221 19.2764 205.849 19.0653 204.033 19.0653C201.373 19.0653 199.62 19.5297 198.776 20.4587C197.974 21.3455 197.572 22.5278 197.572 24.0058H210.494Z" fill="#4CAF50"/>
<path d="M90.5759 19.1075H73.6853V35.9981H90.5759V19.1075Z" fill="#4CAF50"/>
<path fill-rule="evenodd" clip-rule="evenodd" d="M79.1472 22.2745H85.1139C85.5023 22.2745 85.8773 22.4173 86.1673 22.6758C86.4574 22.9344 86.6422 23.2904 86.6868 23.6764L87.5398 31.066C87.5653 31.2878 87.5438 31.5125 87.4764 31.7254C87.4091 31.9382 87.2975 32.1345 87.1489 32.3011C87.0003 32.4677 86.8182 32.6012 86.6146 32.6925C86.4108 32.7838 86.1901 32.8311 85.9668 32.8311H78.2943C78.071 32.8311 77.8503 32.7838 77.6465 32.6925C77.4429 32.6012 77.2608 32.4677 77.1121 32.3011C76.9636 32.1345 76.852 31.9382 76.7847 31.7254C76.7173 31.5125 76.6957 31.2878 76.7213 31.066L77.5743 23.6764C77.6189 23.2904 77.8037 22.9344 78.0938 22.6758C78.3838 22.4173 78.7588 22.2745 79.1472 22.2745ZM76.0014 23.4948C76.0905 22.7229 76.4603 22.0108 77.0402 21.4937C77.6203 20.9767 78.3703 20.6911 79.1472 20.691H85.1139C85.8908 20.6911 86.6408 20.9767 87.2208 21.4937C87.8008 22.0108 88.1706 22.7229 88.2597 23.4948L89.1127 30.8844C89.1639 31.328 89.1207 31.7774 88.986 32.2031C88.8513 32.6288 88.628 33.0212 88.331 33.3546C88.0339 33.688 87.6697 33.9547 87.2622 34.1375C86.8549 34.3201 86.4134 34.4146 85.9668 34.4146H78.2943C77.8477 34.4146 77.4062 34.3201 76.9989 34.1375C76.5914 33.9547 76.2272 33.688 75.9301 33.3546C75.633 33.0212 75.4098 32.6288 75.2751 32.2031C75.1404 31.7774 75.0972 31.328 75.1484 30.8844L76.0014 23.4948ZM78.9636 24.6497C78.9636 24.4397 79.047 24.2383 79.1955 24.0899C79.3439 23.9414 79.5453 23.858 79.7553 23.858C79.9653 23.858 80.1667 23.9414 80.3151 24.0899C80.4637 24.2383 80.5471 24.4397 80.5471 24.6497V24.9136C80.5471 25.3336 80.7138 25.7364 81.0108 26.0334C81.3078 26.3303 81.7106 26.4971 82.1305 26.4971C82.5505 26.4971 82.9533 26.3303 83.2503 26.0334C83.5472 25.7364 83.714 25.3336 83.714 24.9136V24.6497C83.714 24.4397 83.7974 24.2383 83.946 24.0899C84.0944 23.9414 84.2958 23.858 84.5058 23.858C84.7158 23.858 84.9172 23.9414 85.0656 24.0899C85.2141 24.2383 85.2975 24.4397 85.2975 24.6497V24.9136C85.2975 25.7535 84.9638 26.5591 84.3699 27.153C83.776 27.7469 82.9704 28.0806 82.1305 28.0806C81.2906 28.0806 80.4851 27.7469 79.8912 27.153C79.2973 26.5591 78.9636 25.7535 78.9636 24.9136V24.6497Z" fill="#F6F5F3"/>
</g>
<defs>
<clipPath id="clip0_3_3349">
<rect width="220.95" height="55" fill="white"/>
</clipPath>
</defs>
</svg>
